<svg fill="none" height="948" viewBox="0 0 1920 948" width="1920" xmlns="http://www.w3.org/2000/svg"><g fill="#fff" opacity=".04"><path d="m1536.01 474c0 320.879-257.5 583.01-578.236 587.52-325.256 4.52-591.787-257.601-591.787-582.999s252.979-583.006 578.235-583.006c325.258-4.519 587.268 253.087 591.788 578.485zm-587.272-343.474c-85.831 135.582-176.18 275.685-271.046 424.826 307.186 13.558 295.548 17.897 276.688 234.873 0 4.519-9.429 56.602-9.429 84.903 81.309-149.141 179.969-319.778 261.279-468.919-103.9-4.519-197.25 23.559-242.42-21.635-18.859-28.301-47.148-84.904 2.999-235.97 6.431-18.741 15.86-47.832 15.86-65.9096-16.945 21.5406-28.289 37.7346-33.931 47.8316z"/><path d="m727.452-172.277c-4.518-18.078-9.033-22.598-9.033-31.637 9.035-81.349 13.552-167.217 22.587-253.086 54.209 13.558 58.725 63.272 76.794 99.428 90.349 153.66 90.349 153.659-90.348 185.295z"/><path d="m1481.78 49.1836c103.9-22.5971 189.73-45.19422 280.08-67.7913 0 54.233-45.18 72.3101-67.76 103.946-117.46 126.5437-117.46 126.5447-212.32-36.1547z"/><path d="m1156.47-452.482c4.52 90.389 13.55 180.778 22.59 289.244-58.73-13.558-158.11-22.598-158.11-40.676-9.04-99.427 81.31-162.698 103.9-253.086 13.55 0 22.59 4.518 31.62 4.518z"/><path d="m22.6163 763.245c99.3837-67.791 176.1807-117.504 248.4597-171.737 72.279 180.777 72.279 180.776-248.4597 171.737z"/><path d="m1522.49-330.465c-45.18 126.544-72.28 212.413-103.9 307.3203-49.7-36.1553-99.39-67.7896-158.12-108.4643 81.32-58.752 158.11-117.506 262.02-198.856z"/><path d="m393.171-289.772c99.384 18.077 153.591 103.946 243.94 158.179-49.692 40.675-94.864 72.3093-144.556 108.4646-49.692-85.8686-76.797-176.2556-99.384-266.6436z"/><path d="m1567.67 763.225c22.59-67.792 36.14-117.506 58.73-176.259 81.31 54.233 153.59 103.948 252.98 176.259-126.49 0-212.32 0-311.71 0z"/><path d="m320.88 211.851c-76.797-81.349-140.039-144.6214-221.3533-235.0097 121.9713 27.11646 212.3203 49.7152 316.2213 72.3123-31.622 54.2334-58.729 99.4264-94.868 162.6974z"/><path d="m1676.07 1115.76c-63.24-27.12-99.38-40.68-135.52-58.75-153.6-72.314-153.59-72.313-18.07-194.337 45.17 76.83 90.35 149.137 153.59 253.087z"/><path d="m1920 361c-103.9 45.194-171.66 72.313-243.94 103.948-22.59 9.039-45.18 18.076-49.69-13.56-9.04-40.675-13.56-85.867-9.04-131.061 0-18.078 27.11-13.558 45.18-13.558 72.27 18.078 149.07 36.153 257.49 54.231z"/><path d="m280.082 302.25c-4.517 212.412-18.07 212.413-280.082 54.233 99.3838-18.077 185.216-36.155 280.082-54.233z"/><path d="m379.463 858.131c135.523 140.102 135.522 140.103-153.594 253.089 58.727-94.91 103.902-171.74 153.594-253.089z"/><path d="m935.19 1400.48c-9.034-31.64-22.587-67.79-31.622-99.43-49.692-162.7-49.691-162.7 131.002-140.1-27.1 81.35-49.689 162.7-72.276 244.05-9.035-4.52-18.069-4.52-27.104-4.52z"/><path d="m1156.53 1133.8c153.59-90.38 153.59-90.38 185.21 194.34-54.2-9.04-67.76-63.27-103.9-94.91-31.62-31.63-54.21-67.79-81.31-99.43z"/><path d="m591.92 1057c58.726 27.12 103.902 45.2 162.629 72.31-63.244 72.31-117.453 135.59-203.285 235.01 13.553-126.54 27.103-212.41 40.656-307.32z"/></g></svg>