<svg fill="none" height="190" viewBox="0 0 190 190" width="190" xmlns="http://www.w3.org/2000/svg" xmlns:xlink="http://www.w3.org/1999/xlink"><clipPath id="a"><path d="m0 0h190v190h-190z"/></clipPath><clipPath id="b"><path d="m0 0h190v190h-190z"/></clipPath><g clip-path="url(#a)"><g clip-path="url(#b)"><circle cx="95" cy="95" fill="#58a3ff" r="95"/><g fill="#fff"><path d="m91.0651 117.395c-1.7418 0-3.4837-.498-4.9767-.249-6.4698 1.493-9.7047-1.493-10.4512-7.714-.4977-2.488-2.4884-3.733-4.4791-4.479-22.893-22.1466-10.7-53.0024 11.9442-60.2187 15.1791-4.7279 28.6167-.0001 41.3067 15.179 2.986 6.9674 4.728 14.1838 4.728 21.8978-1.991 9.207-5.723 17.4185-13.437 23.3909-.498.497-1.244.995-1.493 1.742-.995 13.437-11.198 9.704-18.9116 10.202-.4977 0-.9955.249-1.4931.249-.7465 0-1.7418 0-2.7372 0zm-1.7419-16.424c-.4976 3.982 1.7419 4.728 4.9768 4.728 3.7325.249 4.4791-1.493 4.2302-4.728 2.9858-.248 5.4748-3.2344 8.7098-2.239 5.225 1.493 8.211-1.2443 7.216-6.4699-.747-3.7325.497-6.9674 3.981-8.9581 4.479-2.7372 4.231-6.7186-.249-9.7047-3.234-1.9907-4.727-4.9766-3.732-8.958 1.244-4.7279-1.991-7.9629-6.719-6.7187-3.732.9954-6.718-.7465-8.7091-3.2348-3.9814-4.7279-6.4697-4.9767-9.9534-.2488-2.2396 2.7372-5.4746 5.4744-8.9583 3.2348-2.986-1.9906-3.9813-.2488-5.2255 1.2442-1.2442 1.4931-3.4837 2.2395-1.9907 5.2256 1.9907 4.2302.2488 7.465-3.9815 9.4557-3.4837 1.4931-3.2348 7.9629 0 9.7047 4.2303 2.2396 5.4746 5.2257 3.9815 9.7048-1.7418 4.9767 4.479 7.7142 5.2256 7.2162 4.479-3.9814 7.7139.249 11.1976.746z"/><path d="m77.8789 123.866h25.3811c8.212 0 10.7 4.479 6.719 11.944-2.24 4.23-14.9304 10.202-18.663 7.963-4.479-2.738-9.9533-4.479-12.9394-9.456 0-3.484-.2489-6.968-.4977-10.451z"/><path d="m95.5459 95.4982c-.9953 0-1.9907 0-2.986 0-11.1977-3.2349-16.9208-10.4513-15.4278-19.6582 1.2442-8.2117 7.9627-14.1837 15.9255-14.4326 8.2114-.2488 15.1794 4.9768 17.1694 12.9396 1.991 7.9628-1.741 15.6767-9.207 19.4093-1.7415.7465-3.7322.9954-5.4741 1.7419zm-1.7418-10.4512c4.479-.2489 6.9679-2.7373 6.9679-6.7187 0-3.7325-2.4888-6.2208-6.2213-6.4697-4.2302-.2488-6.9675 2.2395-7.2164 6.4697-.2488 3.7326 2.2395 6.221 6.4698 6.7187z"/></g></g></g></svg>