<svg fill="none" height="190" viewBox="0 0 190 190" width="190" xmlns="http://www.w3.org/2000/svg" xmlns:xlink="http://www.w3.org/1999/xlink"><clipPath id="a"><path d="m0 0h190v190h-190z"/></clipPath><g clip-path="url(#a)"><circle cx="95" cy="95" fill="#58a3ff" r="95"/><g fill="#fff"><path d="m57.8714 69.3834c4.5024 4.707 9.0046 8.7999 13.0976 13.5069 4.0931 4.5023 7.9814 1.2279 10.2326-1.0232 2.2512-2.2512 5.321-6.1396.8187-10.2326-4.707-4.093-9.2094-8.8-13.7117-13.3023 8.5953-6.7535 22.1023-2.2512 27.8325 4.7069 6.9579 8.5954 6.9579 20.8744-.2046 29.2651-7.3674 8.5958-19.6465 10.6418-29.2651 4.7071-9.4139-5.5256-13.3023-16.9861-8.8-27.6279z"/><path d="m133.995 118.705c.205 4.298-10.642 15.349-14.939 15.349-1.638 0-2.252-1.433-3.07-2.456-6.958-8.8-13.712-17.6-20.6698-26.4-1.8419-2.456-1.8163-2.698 2.6848-7.6979 3.365-3.0814 3.999-4.5001 5.706-4.172.793.1719 4.793 3.6719 8.391 6.3442 7.705 5.7237 12.688 10.2327 19.032 15.5537 1.228 1.023 2.865 1.637 2.865 3.479zm-7.367 2.251c-.41-2.66-2.047-4.502-4.707-4.502-2.865 0-4.912 1.637-4.912 4.911 0 2.865 1.842 4.503 4.502 4.503 3.07 0 4.707-1.842 5.117-4.912z"/></g></g></svg>