<svg fill="none" height="190" viewBox="0 0 190 190" width="190" xmlns="http://www.w3.org/2000/svg"><circle cx="95" cy="95" fill="#58a3ff" r="95"/><g fill="#fff"><path d="m127.84 96.7397c0 17.0073-13.653 30.9003-30.6601 31.1393-17.2465.24-31.3791-13.653-31.3791-30.8997 0-17.2465 13.414-30.9 30.6606-30.9 17.2466-.2396 31.1396 13.4139 31.3786 30.6604zm-31.1392-18.2046c-4.5511 7.1861-9.3418 14.6117-14.3721 22.5159 16.2884.719 15.6713.949 14.6713 12.449 0 .24-.5 3-.5 4.5 4.312-7.905 9.543-16.949 13.854-24.8533-5.509-.2395-10.4587 1.2486-12.854-1.1467-1-1.5-2.5-4.5.159-12.5067.341-.9933.841-2.5352.841-3.4933-.8985 1.1417-1.5 2-1.7992 2.5351z"/><path d="m84.9672 62.4862c-.2395-.9582-.4789-1.1977-.4789-1.6768.4791-4.3116.7186-8.8627 1.1977-13.4139 2.8744.7186 3.1138 3.3535 4.0719 5.2698 4.7907 8.1442 4.7907 8.1441-4.7907 9.8209z"/><path d="m124.965 74.2239c5.509-1.1977 10.06-2.3954 14.851-3.593 0 2.8744-2.395 3.8325-3.593 5.5092-6.228 6.707-6.228 6.707-11.258-1.9162z"/><path d="m107.716 47.635c.239 4.7907.718 9.5814 1.197 15.3303-3.114-.7186-8.383-1.1978-8.383-2.1559-.479-5.2698 4.311-8.6232 5.509-13.4139.719 0 1.198.2395 1.677.2395z"/><path d="m47.5938 112.07c5.2697-3.593 9.3418-6.228 13.1744-9.102 3.8325 9.581 3.8325 9.581-13.1744 9.102z"/><path d="m127.123 54.1021c-2.395 6.7069-3.832 11.2581-5.509 16.2883-2.635-1.9163-5.27-3.5929-8.384-5.7488 4.312-3.1139 8.384-6.2279 13.893-10.5395z"/><path d="m67.2422 56.2588c5.2698.9581 8.1441 5.5093 12.9348 8.3837-2.6349 2.1558-5.0301 3.8325-7.665 5.7488-2.6349-4.5512-4.0721-9.3418-5.2698-14.1325z"/><path d="m129.52 112.069c1.197-3.593 1.916-6.228 3.113-9.342 4.312 2.874 8.145 5.509 13.414 9.342-6.707 0-11.258 0-16.527 0z"/><path d="m63.409 82.8455c-4.0721-4.3116-7.4255-7.6652-11.7371-12.4559 6.4674 1.4373 11.2581 2.635 16.7674 3.8327-1.6767 2.8744-3.114 5.2697-5.0303 8.6232z"/><path d="m135.267 130.754c-3.353-1.437-5.27-2.156-7.186-3.114-8.144-3.833-8.144-3.833-.958-10.3 2.395 4.072 4.791 7.904 8.144 13.414z"/><path d="m148.201 90.7505c-5.509 2.3954-9.102 3.8327-12.935 5.5095-1.197.479-2.395.958-2.634-.7188-.479-2.1558-.719-4.551-.479-6.9464 0-.9581 1.437-.7186 2.395-.7186 3.832.9582 7.905 1.9162 13.653 2.8743z"/><path d="m61.2457 87.6367c-.2395 11.2582-.9581 11.2582-14.8512 2.8745 5.2698-.9582 9.821-1.9163 14.8512-2.8745z"/><path d="m66.5153 117.099c7.1861 7.426 7.186 7.426-8.1442 13.414 3.1139-5.03 5.5094-9.102 8.1442-13.414z"/><path d="m95.9825 145.844c-.4791-1.676-1.1977-3.593-1.6768-5.269-2.6349-8.624-2.6348-8.624 6.9463-7.426-1.4369 4.312-2.6347 8.623-3.8324 12.935-.4791-.24-.9581-.24-1.4371-.24z"/><path d="m107.719 131.71c8.144-4.791 8.144-4.791 9.821 10.3-2.875-.479-3.593-3.353-5.51-5.03-1.676-1.677-2.874-3.593-4.311-5.27z"/><path d="m77.7807 127.64c3.114 1.437 5.5094 2.395 8.6234 3.832-3.3535 3.833-6.2279 7.186-10.7791 12.456.7186-6.707 1.4371-11.258 2.1557-16.288z"/></g></svg>