<svg fill="none" height="190" viewBox="0 0 190 190" width="190" xmlns="http://www.w3.org/2000/svg" xmlns:xlink="http://www.w3.org/1999/xlink"><clipPath id="a"><path d="m0 0h190v190h-190z"/></clipPath><g clip-path="url(#a)"><circle cx="95" cy="95" fill="#58a3ff" r="95"/><g fill="#fff"><path d="m150 90.2918c0 3.0835-.278 5.8868-.278 8.9703 0 1.9619-.279 4.4849-2.505 4.4849-8.628 0-8.628 7.569-11.411 12.615-1.114 1.681-1.392 3.924.278 5.326 5.01 4.485 2.505 7.849-1.392 11.493-3.896 3.364-6.68 8.409-12.524 2.523-1.949-1.963-16.143 3.083-16.143 5.886 0 8.69-6.1232 8.13-11.6896 8.41-2.7833-.841-7.7932.841-7.7932-3.364-.2783-7.008-5.0098-7.849-9.7413-9.25-2.2266-1.402-4.1747-3.364-7.5146-1.963-6.6798 2.804-13.0813.281-16.4211-6.167-.5567-1.401-1.3916-2.803-.2783-3.924 6.1231-5.326 1.6699-10.372 0-15.418-1.1133-3.083-2.2268-5.326-6.1233-5.326-6.9581-.28-5.2879-5.6063-5.2879-9.8111s-1.1133-8.6899 5.5665-9.5308c5.8448-.841 10.8545-13.4554 7.2363-18.2208-4.4532-6.1671 1.1131-8.1293 3.618-11.2128 2.5049-2.8032 5.0101-6.7277 10.0199-2.8032 5.0098 3.6441 17.2561-1.1214 18.091-7.2885.835-7.008 5.2879-5.6064 9.4627-5.6064 4.4532 0 9.4629-1.4015 10.2979 5.8868.557 5.3261 13.638 10.6521 17.534 7.2883 5.567-4.7654 7.794-.2802 10.577 2.523 3.061 3.0835 8.071 5.8867 3.061 11.2128-3.061 3.3638-.834 5.8866.835 8.6898 1.392 5.0458 2.227 10.0916 9.464 9.8112 2.226 0 2.783 2.8033 3.061 4.7655zm-31.451 31.3962c.835-.841 1.949-1.682 2.784-2.803.835-1.122 1.67-1.963 2.226-3.084 8.628-11.213 9.463-23.5469 3.897-36.1613-5.567-12.3341-15.865-19.3421-29.224-20.4634-15.3078-1.4016-29.2242 7.2884-35.3473 21.0241-6.1231 13.7356-3.0613 29.4336 7.515 40.0856 11.1329 11.213 25.884 13.175 41.7483 5.887 2.505-.841 4.731-2.243 6.401-4.485z"/><path d="m111.147 111.43c-.852 1.657-1.99 3.313-2.842 4.969-1.99 1.381-4.265 2.761-6.255 4.141-6.8225 8.006-12.7922-.276-19.0463-1.104-3.1271-.552-3.6957-2.485-2.5586-5.245 1.1371-3.037 3.1272-2.484 5.1171-1.656 5.4014 2.208 7.107.828 7.3912-4.969 0-6.074-.2842-10.7665-7.1069-13.2509-4.8328-1.9324-7.1071-6.3492-6.8228-11.8703.5685-5.521 3.1271-9.6618 8.5284-11.8702 1.9899-.8282 5.1171-.5522 5.4013-3.8648 0-1.1043 1.9901-1.9323 2.2744-1.6563 3.4114 5.7971 10.8022 4.1407 15.0662 8.0054 1.422 1.1043-.284 3.0367-.852 4.417-.569 1.9324-1.706 2.2084-3.696 1.6562-2.559-.8281-6.5384-4.1407-7.3912.5522-.8528 4.1408-2.8428 9.9379 2.8432 12.9745 4.832 2.4845 8.528 5.797 10.802 10.7662-.569 2.208-.853 5.245-.853 8.005zm-13.6452-11.8699c0 3.0369-.2842 5.5209 0 8.0059.2843 1.932-1.9897 5.797 1.9902 5.521 3.127-.276 3.98-3.313 3.695-6.35 0-3.036-1.137-5.797-5.6852-7.1769zm-5.6855-22.3604c-6.2542 5.5211-6.2542 6.6255 0 10.4902 1.1371-3.3126.8528-6.6254 0-10.4902z"/></g></g></svg>