<svg fill="none" height="45" viewBox="0 0 46 45" width="46" xmlns="http://www.w3.org/2000/svg" xmlns:xlink="http://www.w3.org/1999/xlink"><clipPath id="a"><path d="m.5 0h45v45h-45z"/></clipPath><g clip-path="url(#a)"><rect fill="#f00" height="45" rx="22.5" width="45" x=".5"/><path clip-rule="evenodd" d="m34.0043 13.2566c1.2047.3244 2.1546 1.2742 2.4789 2.4789.6023 2.2009.5792 6.788.5792 6.788s0 4.5639-.5792 6.7648c-.3243 1.2047-1.2742 2.1545-2.4789 2.4789-2.2009.5791-11.0044.5791-11.0044.5791s-8.7803 0-11.0043-.6023c-1.2047-.3243-2.15458-1.2742-2.47892-2.4789-.57918-2.1777-.57918-6.7648-.57918-6.7648s0-4.5639.57918-6.7648c.32434-1.2047 1.29732-2.1777 2.47892-2.502 2.2008-.5792 11.0043-.5792 11.0043-.5792s8.8035 0 11.0044.6023zm-6.4868 9.2437-7.3208 4.2164v-8.4328z" fill="#fff" fill-rule="evenodd"/></g></svg>