<svg fill="none" height="45" viewBox="0 0 45 45" width="45" xmlns="http://www.w3.org/2000/svg" xmlns:xlink="http://www.w3.org/1999/xlink"><clipPath id="a"><path d="m0 0h45v45h-45z"/></clipPath><g clip-path="url(#a)"><rect fill="#7360f2" height="45" rx="22.5" width="45"/><g fill="#fff"><path d="m33.5199 11.423c-.7443-.6842-3.7574-2.87504-10.4739-2.90505 0 0-7.9169-.48018-11.7763 3.06115-2.14877 2.1488-2.90505 5.2879-2.98308 9.1893-.07802 3.8955-.18006 11.2001 6.86048 13.1808h.006l-.006 3.0192s-.042 1.2244.7623 1.4705c.9724.3001 1.5486-.6302 2.4789-1.6326.5102-.5522 1.2125-1.3565 1.7467-1.9747 4.8137.4021 8.5171-.5222 8.9372-.6603.9724-.3181 6.4764-1.0203 7.3707-8.325.9244-7.5148-.4501-12.2745-2.923-14.4233zm.8163 13.8951c-.7563 6.0982-5.216 6.4824-6.0383 6.7465-.3481.114-3.6013.9243-7.6948.6542 0 0-3.0491 3.6793-3.9974 4.6337-.1501.15-.3242.2101-.4382.1801-.1621-.0421-.2101-.2341-.2041-.5162 0-.4082.024-5.0239.024-5.0239-.006 0-.006 0 0 0-5.9601-1.6506-5.612-7.8688-5.546-11.122s.6783-5.9242 2.4969-7.7189c3.2592-2.953 9.9877-2.5149 9.9877-2.5149 5.6781.024 8.397 1.7347 9.0273 2.3049 2.0947 1.8006 3.1631 6.0922 2.3829 12.3765z"/><path d="m25.8131 20.9845c-.1981 0-.3662-.156-.3782-.3601-.066-1.2905-.6722-1.9207-1.9087-1.9867-.2101-.012-.3721-.1921-.3601-.4022s.1921-.3721.4021-.3601c1.6326.09 2.545 1.0264 2.629 2.707.012.21-.1501.3901-.3601.3961-.012.006-.018.006-.024.006z"/><path d="m27.7577 21.6329h-.006c-.21-.006-.3781-.1801-.3721-.3902.03-1.2964-.3421-2.3468-1.1344-3.2111-.7863-.8643-1.8727-1.3325-3.3072-1.4346-.2101-.018-.3662-.198-.3481-.4081.018-.2101.198-.3661.4081-.3481 1.6206.12 2.8991.6842 3.8114 1.6806.9183 1.0024 1.3625 2.2568 1.3325 3.7394-.006.21-.1801.3721-.3842.3721z"/><path d="m29.7505 22.413c-.2101 0-.3782-.1681-.3782-.3781-.018-2.3229-.6842-4.0935-2.0407-5.42-1.3385-1.3085-3.0371-1.9748-5.0359-1.9928-.21 0-.3781-.174-.3781-.3841s.1741-.3781.3781-.3781c2.2028.018 4.0755.7562 5.5581 2.2088 1.4885 1.4525 2.2508 3.4572 2.2748 5.9541.006.2161-.1621.3902-.3781.3902.006 0 .006 0 0 0z"/><path d="m23.6162 25.6842s.5342.048.8223-.3062l.5582-.7022c.2701-.3481.9244-.5702 1.5606-.2161.3541.1981.9964.5942 1.3925.8883.4262.3121 1.2905 1.0324 1.2965 1.0384.4141.3481.5102.8583.2281 1.4045v.012c-.2881.5102-.6783.9904-1.1644 1.4346-.0061 0-.0061.006-.0121.006-.4021.3361-.7982.5281-1.1824.5702-.048.012-.102.012-.174.012-.1681 0-.3362-.024-.5042-.0781l-.012-.018c-.6003-.168-1.5966-.5882-3.2532-1.5065-1.0804-.5942-1.9748-1.2005-2.737-1.8067-.4022-.3181-.8103-.6722-1.2305-1.0924-.012-.012-.03-.03-.042-.042s-.03-.03-.042-.042-.03-.03-.042-.042-.03-.03-.042-.042c-.4142-.4202-.7743-.8283-1.0924-1.2305-.6063-.7563-1.2125-1.6566-1.8067-2.737-.9183-1.6626-1.3385-2.659-1.5066-3.2532l-.018-.012c-.054-.168-.078-.3361-.078-.5042 0-.072 0-.126.012-.174.048-.3902.2401-.7803.5702-1.1825 0-.006.006-.006.006-.012.4442-.4922.9244-.8763 1.4346-1.1644h.012c.5402-.2821 1.0503-.1861 1.4045.2281 0 0 .7262.8703 1.0383 1.2965.2942.4021.6903 1.0383.8884 1.3925.3541.6362.132 1.2904-.2161 1.5605l-.7023.5582c-.3541.2882-.3061.8223-.3061.8223s1.0384 3.9495 4.9398 4.9399z"/></g></g></svg>