<svg fill="none" height="28" viewBox="0 0 28 28" width="28" xmlns="http://www.w3.org/2000/svg" xmlns:xlink="http://www.w3.org/1999/xlink"><clipPath id="a"><path d="m0 0h28v28h-28z"/></clipPath><g clip-path="url(#a)" stroke="#3990ff" stroke-linecap="round" stroke-linejoin="round" stroke-width="2"><path d="m27.0251 12.8229v1.1972c-.0016 2.8061-.9102 5.5365-2.5904 7.7839-1.6801 2.2475-4.0417 3.8917-6.7326 4.6873s-5.5669.7001-8.19909-.2724c-2.63216-.9724-4.87946-2.7697-6.40674-5.1237-1.52727-2.3541-2.252692-5.1387-2.06806-7.9387.18463-2.8 1.26941-5.46533 3.09256-7.59843 1.82316-2.13311 4.287-3.61972 7.02403-4.23813 2.7371-.618407 5.6007-.335476 8.1639.8066"/><path d="m27.0257 3.61133-13.0126 13.02567-3.9037-3.9038"/></g></svg>