<svg fill="none" height="45" viewBox="0 0 46 45" width="46" xmlns="http://www.w3.org/2000/svg" xmlns:xlink="http://www.w3.org/1999/xlink"><clipPath id="a"><path d="m.5 0h45v45h-45z"/></clipPath><g clip-path="url(#a)"><rect fill="#0dc143" height="45" rx="22.5" width="45" x=".5"/><path d="m33.0778 12.3858c-2.4122-2.48314-5.7466-3.83111-9.152-3.83111-7.2365 0-13.0541 5.88851-12.9831 13.05401 0 2.2703.6385 4.4696 1.7027 6.4561l-1.8446 6.7399 6.8817-1.7737c1.9156 1.0642 4.044 1.5609 6.1723 1.5609 7.1656 0 12.9831-5.8886 12.9831-13.0541 0-3.4764-1.3479-6.7399-3.7601-9.152zm-9.152 20.0067c-1.9156 0-3.8311-.4966-5.4629-1.4898l-.4256-.2129-4.1149 1.0642 1.0642-4.0439-.2838-.4257c-3.1216-5.0371-1.6317-11.7061 3.4764-14.8277 5.1081-3.12161 11.706-1.6317 14.8277 3.4764 3.1216 5.1081 1.6317 11.706-3.4764 14.8277-1.6317 1.0642-3.6182 1.6317-5.6047 1.6317zm6.2432-7.875-.7804-.3547s-1.1351-.4966-1.8446-.8514c-.0709 0-.1419-.0709-.2128-.0709-.2129 0-.3547.0709-.4966.1419 0 0-.071.0709-1.0642 1.2061-.071.1419-.2129.2128-.3548.2128h-.0709c-.0709 0-.2128-.0709-.2838-.1419l-.3547-.1419c-.7804-.3547-1.4899-.7804-2.0574-1.3479-.1419-.1419-.3548-.2838-.4967-.4257-.4966-.4966-.9932-1.0642-1.3479-1.7027l-.071-.1419c-.0709-.071-.0709-.1419-.1419-.2838 0-.1419 0-.2838.071-.3547 0 0 .2838-.3548.4966-.5676.1419-.1419.2128-.3547.3547-.4966.1419-.2129.2129-.4966.1419-.7095-.0709-.3547-.9223-2.2703-1.1351-2.6959-.1419-.2129-.2838-.2838-.4966-.3548h-.2129c-.1419 0-.3547 0-.5676 0-.1418 0-.2837.071-.4256.071l-.071.0709c-.1419.071-.2838.2129-.4256.2838-.1419.1419-.2129.2838-.3548.4257-.4966.6385-.7804 1.4189-.7804 2.1993 0 .5676.1419 1.1352.3547 1.6318l.071.2128c.6385 1.348 1.4899 2.5541 2.625 3.6183l.2838.2837c.2128.2129.4257.3548.5675.5676 1.4899 1.277 3.1926 2.1993 5.1082 2.696.2128.0709.4966.0709.7094.1418h.7095c.3547 0 .7804-.1418 1.0642-.2837.2128-.1419.3547-.1419.4966-.2838l.1419-.1419c.1419-.1419.2838-.2128.4256-.3547.1419-.1419.2838-.2838.3548-.4257.1419-.2838.2128-.6385.2838-.9933 0-.1419 0-.3547 0-.4966 0 0-.071-.0709-.2129-.1419z" fill="#fff"/></g></svg>