<svg fill="none" height="45" viewBox="0 0 46 45" width="46" xmlns="http://www.w3.org/2000/svg" xmlns:xlink="http://www.w3.org/1999/xlink"><radialGradient id="a" cx="0" cy="0" gradientTransform="matrix(0 -44.5983 41.4799 0 12.4688 48.4699)" gradientUnits="userSpaceOnUse" r="1"><stop offset="0" stop-color="#fd5"/><stop offset=".1" stop-color="#fd5"/><stop offset=".5" stop-color="#ff543e"/><stop offset="1" stop-color="#c837ab"/></radialGradient><clipPath id="b"><path d="m.515625 0h45v45h-45z"/></clipPath><g clip-path="url(#b)"><rect fill="url(#a)" height="45" rx="22.5" width="45" x=".515625" y=".003906"/><path d="m18.3289 22.5029c0-2.5887 2.098-4.6878 4.6867-4.6878 2.5888 0 4.6879 2.0991 4.6879 4.6878 0 2.5888-2.0991 4.6879-4.6879 4.6879-2.5887 0-4.6867-2.0991-4.6867-4.6879zm-2.5342 0c0 3.9882 3.2328 7.221 7.2209 7.221s7.2209-3.2328 7.2209-7.221c0-3.9881-3.2328-7.2209-7.2209-7.2209s-7.2209 3.2328-7.2209 7.2209zm13.0402-7.5072c-.0001.3337.0987.66.284.9376s.4488.494.7571.6219c.3083.1278.6476.1614.975.0964.3273-.065.6281-.2256.8642-.4615s.3969-.5365.4622-.8639c.0652-.3273.0319-.6666-.0957-.975s-.3438-.572-.6212-.7576c-.2774-.1855-.6037-.2846-.9374-.2847h-.0007c-.4474.0002-.8764.1779-1.1928.4942s-.4943.7452-.4947 1.1926zm-11.5005 18.9538c-1.3711-.0625-2.1163-.2908-2.6115-.4838-.6565-.2556-1.125-.56-1.6175-1.0519-.4925-.4918-.7974-.9598-1.0519-1.6164-.193-.495-.4214-1.2404-.4837-2.6114-.0682-1.4823-.0818-1.9276-.0818-5.683 0-3.7553.0147-4.1994.0818-5.6829.0624-1.371.2925-2.115.4837-2.6115.2556-.6565.56-1.125 1.0519-1.6175.4918-.4925.9598-.7974 1.6175-1.0519.495-.193 1.2404-.4214 2.6115-.4837 1.4823-.0682 1.9275-.0818 5.6812-.0818s4.1994.0147 5.683.0818c1.371.0624 2.115.2925 2.6114.4837.6566.2545 1.125.5601 1.6175 1.0519.4926.4919.7963.961 1.0519 1.6175.1931.495.4214 1.2405.4838 2.6115.0681 1.4835.0818 1.9276.0818 5.6829 0 3.7554-.0137 4.1994-.0818 5.683-.0625 1.371-.292 2.1162-.4838 2.6114-.2556.6566-.56 1.125-1.0519 1.6164-.4918.4914-.9609.7963-1.6175 1.0519-.495.1931-1.2404.4214-2.6114.4838-1.4823.0681-1.9276.0818-5.683.0818-3.7553 0-4.1994-.0137-5.6812-.0818zm-.1165-25.42391c-1.497.06818-2.52.30555-3.4133.65318-.9252.35898-1.7085.84063-2.4911 1.62203-.7827.7814-1.2631 1.5659-1.62204 2.4911-.34762.8939-.585 1.9163-.65317 3.4133-.0693 1.4994-.08517 1.9788-.08517 5.7977 0 3.819.01587 4.2983.08517 5.7977.06817 1.4972.30555 2.5195.65317 3.4134.35894.9246.83944 1.71 1.62204 2.4911.7825.7811 1.5659 1.262 2.4911 1.622.895.3476 1.9163.585 3.4133.6532 1.5002.0681 1.9788.0851 5.7977.0851s4.2983-.0158 5.7977-.0851c1.4972-.0682 2.5194-.3056 3.4134-.6532.9246-.36 1.7084-.8406 2.4911-1.622.7826-.7815 1.262-1.5665 1.622-2.4911.3476-.8939.5861-1.9163.6532-3.4134.0681-1.5005.084-1.9787.084-5.7977 0-3.8189-.0159-4.2983-.084-5.7977-.0682-1.4971-.3056-2.52-.6532-3.4133-.36-.9247-.8406-1.7084-1.622-2.4911-.7815-.7827-1.5665-1.26305-2.49-1.62203-.895-.34763-1.9175-.58613-3.4134-.65318-1.4994-.06817-1.9787-.08516-5.7977-.08516-3.8189 0-4.2986.01586-5.7988.08516z" fill="#fff"/></g></svg>