<svg fill="none" height="75" viewBox="0 0 75 75" width="75" xmlns="http://www.w3.org/2000/svg"><path clip-rule="evenodd" d="m37.5 65c15.1878 0 27.5-12.3122 27.5-27.5s-12.3122-27.5-27.5-27.5-27.5 12.3122-27.5 27.5 12.3122 27.5 27.5 27.5zm0-46c-3.481 0-4.3594 5.3518-4.3594 5.3518l1.4532 17.1492s1.52 2.1407 2.9062 2.1407 2.9062-2.1407 2.9062-2.1407l1.4532-17.1492s-.7072-5.3518-4.3594-5.3518zm-3.2344 35.7199c.875.8534 1.9532 1.2801 3.2344 1.2801s2.3438-.4267 3.1875-1.2801c.875-.8863 1.3125-1.9531 1.3125-3.2004s-.4219-2.2813-1.2656-3.1019c-.8438-.8534-1.9219-1.2801-3.2344-1.2801s-2.3906.4267-3.2344 1.2801c-.8437.8206-1.2656 1.8546-1.2656 3.1019s.4219 2.3141 1.2656 3.2004z" fill="#4a8fff" fill-rule="evenodd"/></svg>